# xmcd CD database file
#
# Track frame offsets:
#	150
#	62401
#	139271
#	182177
#	227780
#	267729
#
# Disc length: 4330 seconds
#
# Revision: 0
# Processed by: cddbd v1.5PL3 Copyright (c) Steve Scherf et al.
# Submitted via: CDex 1.51
#
DISCID=5810e806
DTITLE=Chris Burn Ensemble - The Place 1991
DYEAR=1991
DGENRE=Jazz
TTITLE0=Presponse
TTITLE1=The Piano Ate Card
TTITLE2=Pollock #82
TTITLE3=Southern Samba A Go-Go
TTITLE4=Hammer Hint
TTITLE5=Blocks and Arches
EXTD=YEAR: 1991
EXTT0=
EXTT1=
EXTT2=
EXTT3=
EXTT4=
EXTT5=
PLAYORDER=
